<svg xmlns="http://www.w3.org/2000/svg" viewBox="0 0 101 91.29"><defs><style>.cls-1{fill:#90c;}</style></defs><g id="Layer_2" data-name="Layer 2"><g id="_0" data-name="0"><g id="LWPOLYLINE"><path class="cls-1" d="M14.25,31.39h.61a17.19,17.19,0,0,1,7,1.48L32,37.4a2.85,2.85,0,0,1,1.58,3.39,17.61,17.61,0,0,0,0,9.71A2.85,2.85,0,0,1,32,53.89L21.82,58.42a17,17,0,0,1-7,1.48h-.61a14.26,14.26,0,0,1,0-28.51Z"/></g><g id="LWPOLYLINE-2" data-name="LWPOLYLINE"><path class="cls-1" d="M86.74,31.39h-.6a17.19,17.19,0,0,0-7,1.48L69,37.4a2.85,2.85,0,0,0-1.58,3.39,17.61,17.61,0,0,1,0,9.71A2.85,2.85,0,0,0,69,53.89l10.18,4.53a17,17,0,0,0,7,1.48h.6a14.26,14.26,0,1,0,0-28.51Z"/></g><g id="LWPOLYLINE-3" data-name="LWPOLYLINE"><path class="cls-1" d="M20,69.91l.31-.53A16.94,16.94,0,0,1,25.1,64.1l9-6.55a2.85,2.85,0,0,1,3.73.32,17.56,17.56,0,0,0,8.4,4.86,2.86,2.86,0,0,1,2.15,3.06L47.22,76.87A17.09,17.09,0,0,1,45,83.64l-.3.52A14.25,14.25,0,1,1,20,69.91Z"/></g><g id="LWPOLYLINE-4" data-name="LWPOLYLINE"><path class="cls-1" d="M56.28,7.13,56,7.65a17.29,17.29,0,0,0-2.19,6.77L52.61,25.5a2.87,2.87,0,0,0,2.15,3.07,17.46,17.46,0,0,1,8.4,4.85,2.85,2.85,0,0,0,3.73.32l9-6.54a17.1,17.1,0,0,0,4.76-5.29l.31-.53A14.25,14.25,0,0,0,56.28,7.13Z"/></g><g id="LWPOLYLINE-5" data-name="LWPOLYLINE"><path class="cls-1" d="M56.28,84.16,56,83.64a17.24,17.24,0,0,1-2.19-6.77L52.61,65.79a2.86,2.86,0,0,1,2.15-3.06,17.56,17.56,0,0,0,8.4-4.86,2.85,2.85,0,0,1,3.73-.32l9,6.55a17.06,17.06,0,0,1,4.76,5.28l.31.53A14.25,14.25,0,0,1,56.28,84.16Z"/></g><g id="LWPOLYLINE-6" data-name="LWPOLYLINE"><path class="cls-1" d="M20,21.38l.31.53A17,17,0,0,0,25.1,27.2l9,6.54a2.85,2.85,0,0,0,3.73-.32,17.46,17.46,0,0,1,8.4-4.85,2.87,2.87,0,0,0,2.15-3.07L47.22,14.42A17.14,17.14,0,0,0,45,7.65l-.3-.52A14.25,14.25,0,1,0,20,21.38Z"/></g><g id="LWPOLYLINE-7" data-name="LWPOLYLINE"><path class="cls-1" d="M37.44,51.36a20.78,20.78,0,0,0,16.28-1.13,26.77,26.77,0,0,0-3.46-4.13,28,28,0,0,1-14,.17A14.39,14.39,0,0,0,37.44,51.36Z"/></g><g id="LWPOLYLINE-8" data-name="LWPOLYLINE"><path class="cls-1" d="M38,52.43A21.67,21.67,0,0,0,54.2,51,28.62,28.62,0,0,1,56,54.22a20.78,20.78,0,0,1-15.81,1.24A14.57,14.57,0,0,1,38,52.43Z"/></g><g id="LWPOLYLINE-9" data-name="LWPOLYLINE"><path class="cls-1" d="M41.55,56.74A21.61,21.61,0,0,0,56.31,55a26.81,26.81,0,0,1,1.09,3.12A14.25,14.25,0,0,1,41.55,56.74Z"/></g><g id="LWPOLYLINE-10" data-name="LWPOLYLINE"><path class="cls-1" d="M52.09,31.48a20.71,20.71,0,0,0-7.17,14.67,28.26,28.26,0,0,0,5.31-.93A28,28,0,0,1,57.08,33,14.38,14.38,0,0,0,52.09,31.48Z"/></g><g id="LWPOLYLINE-11" data-name="LWPOLYLINE"><path class="cls-1" d="M50.9,31.4a21.58,21.58,0,0,0-6.84,14.8,28.84,28.84,0,0,1-3.72-.1,20.78,20.78,0,0,1,6.83-14.31A13.76,13.76,0,0,1,50.9,31.4Z"/></g><g id="LWPOLYLINE-12" data-name="LWPOLYLINE"><path class="cls-1" d="M45.37,32.35A21.6,21.6,0,0,0,39.49,46a27.2,27.2,0,0,1-3.24-.61A14.23,14.23,0,0,1,45.37,32.35Z"/></g><g id="LWPOLYLINE-13" data-name="LWPOLYLINE"><path class="cls-1" d="M62,54.1a20.74,20.74,0,0,0-9.11-13.54A26.07,26.07,0,0,0,51,45.63a28.07,28.07,0,0,1,7.15,12A14.2,14.2,0,0,0,62,54.1Z"/></g><g id="LWPOLYLINE-14" data-name="LWPOLYLINE"><path class="cls-1" d="M62.64,53.12a21.64,21.64,0,0,0-9.4-13.33,27.78,27.78,0,0,1,1.95-3.17,20.81,20.81,0,0,1,9,13.07A14.44,14.44,0,0,1,62.64,53.12Z"/></g><g id="LWPOLYLINE-15" data-name="LWPOLYLINE"><path class="cls-1" d="M64.58,47.85A21.69,21.69,0,0,0,55.7,35.93a26.76,26.76,0,0,1,2.15-2.5A14.24,14.24,0,0,1,64.58,47.85Z"/></g></g></g></svg>